<svg id="_1" data-name="1" xmlns="http://www.w3.org/2000/svg" xmlns:xlink="http://www.w3.org/1999/xlink" width="257" height="178" viewBox="0 0 257 178">
  <metadata><?xpacket begin="﻿" id="W5M0MpCehiHzreSzNTczkc9d"?>
<x:xmpmeta xmlns:x="adobe:ns:meta/" x:xmptk="Adobe XMP Core 5.6-c138 79.159824, 2016/09/14-01:09:01        ">
   <rdf:RDF xmlns:rdf="http://www.w3.org/1999/02/22-rdf-syntax-ns#">
      <rdf:Description rdf:about=""/>
   </rdf:RDF>
</x:xmpmeta>
                                                                                                    
                                                                                                    
                                                                                                    
                                                                                                    
                                                                                                    
                                                                                                    
                                                                                                    
                                                                                                    
                                                                                                    
                                                                                                    
                                                                                                    
                                                                                                    
                                                                                                    
                                                                                                    
                                                                                                    
                                                                                                    
                                                                                                    
                                                                                                    
                                                                                                    
                                                                                                    
                           
<?xpacket end="w"?></metadata>
<defs>
    <style>
      .cls-1 {
        fill: #282828;
        fill-rule: evenodd;
        filter: url(#filter);
      }
    </style>
    <filter id="filter" x="21.25" y="44" width="219.188" height="102" filterUnits="userSpaceOnUse">
      <feFlood result="flood" flood-color="#222"/>
      <feComposite result="composite" operator="in" in2="SourceGraphic"/>
      <feBlend result="blend" in2="SourceGraphic"/>
    </filter>
  </defs>
  <path id="pixi_copy" data-name="pixi copy" class="cls-1" d="M60.617,44a28.889,28.889,0,0,0-14.573,3.6,23.674,23.674,0,0,0-9.615,10.2v-12H21.254V146H36.429V106.4a23.2,23.2,0,0,0,9.615,10.125,29.367,29.367,0,0,0,14.573,3.525,31.483,31.483,0,0,0,17.052-4.65,30.587,30.587,0,0,0,11.493-13.2,45.7,45.7,0,0,0,4.057-19.8,46.368,46.368,0,0,0-4.132-20.1A31.955,31.955,0,0,0,77.519,48.8a30.49,30.49,0,0,0-16.9-4.8h0Zm-3.606,64.05q-9.916,0-15.249-6.75T36.429,82.1q0-12.449,5.333-19.2t15.249-6.75q9.764,0,15.249,6.9T77.745,82.4q0,12.3-5.409,18.974t-15.324,6.675h0ZM125.218,119V45.8H110.044V119h15.174Zm87.739-73.2H194.778L175.247,70.55,155.866,45.8h-18.33l29,35.55L135.884,119h18.179l21.184-26.7L196.581,119H214.76L184.111,81.35ZM240.45,119V45.8H225.276V119H240.45Z"/>
</svg>
